<mxfile host="Electron" agent="Mozilla/5.0 (X11; Linux x86_64) AppleWebKit/537.36 (KHTML, like Gecko) draw.io/28.1.2 Chrome/138.0.7204.243 Electron/37.4.0 Safari/537.36" version="28.1.2" pages="4">
  <diagram name="Halaman-1" id="Lm6z3Dgp-Bg0wg-Iswer">
    <mxGraphModel dx="2575" dy="1573" grid="1" gridSize="10" guides="1" tooltips="1" connect="1" arrows="1" fold="1" page="1" pageScale="1" pageWidth="850" pageHeight="1100" math="0" shadow="0">
      <root>
        <mxCell id="0" />
        <mxCell id="1" parent="0" />
        <mxCell id="0di1fcBkROJIo35OJod3-1" value="&lt;u&gt;&lt;b&gt;Cities&lt;/b&gt;&lt;/u&gt;&lt;br&gt;&lt;br&gt;&lt;b&gt;id&lt;/b&gt; (PK)&lt;br&gt;name&lt;br&gt;province&lt;br&gt;created_at" style="html=1;dashed=0;whiteSpace=wrap;fillColor=#dae8fc;strokeColor=#6c8ebf;" vertex="1" parent="1">
          <mxGeometry x="80" y="175" width="120" height="100" as="geometry" />
        </mxCell>
        <mxCell id="0di1fcBkROJIo35OJod3-2" value="&lt;u&gt;&lt;b&gt;Theaters&lt;/b&gt;&lt;/u&gt;&lt;br&gt;&lt;br&gt;&lt;b&gt;id&lt;/b&gt; (PK)&lt;br&gt;&lt;b&gt;city_id&lt;/b&gt; (FK)&lt;br&gt;name&lt;br&gt;address&lt;br&gt;total_halls" style="html=1;dashed=0;whiteSpace=wrap;fillColor=#dae8fc;strokeColor=#6c8ebf;" vertex="1" parent="1">
          <mxGeometry x="260" y="170" width="120" height="110" as="geometry" />
        </mxCell>
        <mxCell id="0di1fcBkROJIo35OJod3-3" value="&lt;u&gt;&lt;b&gt;Screenings&lt;/b&gt;&lt;/u&gt;&lt;br&gt;&lt;br&gt;&lt;b&gt;id&lt;/b&gt; (PK)&lt;br&gt;&lt;b&gt;theater_id&lt;/b&gt; (FK)&lt;br&gt;&lt;b&gt;movie_id&lt;/b&gt; (FK)&lt;br&gt;show_time&lt;br&gt;hall_number&lt;br&gt;price" style="html=1;dashed=0;whiteSpace=wrap;fillColor=#dae8fc;strokeColor=#6c8ebf;" vertex="1" parent="1">
          <mxGeometry x="440" y="165" width="120" height="120" as="geometry" />
        </mxCell>
        <mxCell id="0di1fcBkROJIo35OJod3-4" value="&lt;u&gt;&lt;b&gt;Movies&lt;/b&gt;&lt;/u&gt;&lt;br&gt;&lt;br&gt;&lt;b&gt;id&lt;/b&gt; (PK)&lt;br&gt;title&lt;br&gt;duration&lt;br&gt;genre&lt;br&gt;rating" style="html=1;dashed=0;whiteSpace=wrap;fillColor=#dae8fc;strokeColor=#6c8ebf;" vertex="1" parent="1">
          <mxGeometry x="440" y="10" width="120" height="110" as="geometry" />
        </mxCell>
        <mxCell id="0di1fcBkROJIo35OJod3-5" value="" style="endArrow=ERmandOne;html=1;rounded=0;startArrow=ERoneToMany;startFill=0;endFill=0;" edge="1" parent="1" source="0di1fcBkROJIo35OJod3-2" target="0di1fcBkROJIo35OJod3-1">
          <mxGeometry width="50" height="50" relative="1" as="geometry">
            <mxPoint x="240" y="240" as="sourcePoint" />
            <mxPoint x="280" y="240" as="targetPoint" />
          </mxGeometry>
        </mxCell>
        <mxCell id="0di1fcBkROJIo35OJod3-7" value="" style="endArrow=ERmandOne;html=1;rounded=0;startArrow=ERoneToMany;startFill=0;endFill=0;" edge="1" parent="1" source="0di1fcBkROJIo35OJod3-3" target="0di1fcBkROJIo35OJod3-2">
          <mxGeometry width="50" height="50" relative="1" as="geometry">
            <mxPoint x="400" y="230" as="sourcePoint" />
            <mxPoint x="440" y="230" as="targetPoint" />
          </mxGeometry>
        </mxCell>
        <mxCell id="0di1fcBkROJIo35OJod3-9" value="" style="endArrow=ERmandOne;html=1;rounded=0;endFill=0;startArrow=ERoneToMany;startFill=0;" edge="1" parent="1" source="0di1fcBkROJIo35OJod3-3" target="0di1fcBkROJIo35OJod3-4">
          <mxGeometry width="50" height="50" relative="1" as="geometry">
            <mxPoint x="560" y="240" as="sourcePoint" />
            <mxPoint x="600" y="240" as="targetPoint" />
          </mxGeometry>
        </mxCell>
        <mxCell id="0di1fcBkROJIo35OJod3-11" value="&lt;u&gt;&lt;b&gt;Halls&lt;/b&gt;&lt;/u&gt;&lt;br&gt;&lt;br&gt;&lt;b&gt;id&lt;/b&gt; (PK)&lt;br&gt;&lt;b&gt;theater_id&lt;/b&gt; (FK)&lt;br&gt;name&lt;br&gt;capacity&lt;br&gt;layout" style="html=1;dashed=0;whiteSpace=wrap;fillColor=#dae8fc;strokeColor=#6c8ebf;" vertex="1" parent="1">
          <mxGeometry x="260" y="360" width="120" height="110" as="geometry" />
        </mxCell>
        <mxCell id="0di1fcBkROJIo35OJod3-12" value="&lt;u&gt;&lt;b&gt;Seats&lt;/b&gt;&lt;/u&gt;&lt;br&gt;&lt;br&gt;&lt;b&gt;id&lt;/b&gt; (PK)&lt;br&gt;&lt;b&gt;hall_id&lt;/b&gt; (FK)&lt;br&gt;row&lt;br&gt;number&lt;br&gt;type&lt;br&gt;x_position&lt;br&gt;y_position" style="html=1;dashed=0;whiteSpace=wrap;fillColor=#dae8fc;strokeColor=#6c8ebf;" vertex="1" parent="1">
          <mxGeometry x="440" y="500" width="120" height="140" as="geometry" />
        </mxCell>
        <mxCell id="0di1fcBkROJIo35OJod3-13" value="" style="endArrow=ERmandOne;html=1;rounded=0;startArrow=ERoneToMany;startFill=0;endFill=0;" edge="1" parent="1" source="0di1fcBkROJIo35OJod3-11" target="0di1fcBkROJIo35OJod3-2">
          <mxGeometry width="50" height="50" relative="1" as="geometry">
            <mxPoint x="340" y="280" as="sourcePoint" />
            <mxPoint x="340" y="370" as="targetPoint" />
            <Array as="points" />
          </mxGeometry>
        </mxCell>
        <mxCell id="0di1fcBkROJIo35OJod3-15" value="" style="endArrow=ERmandOne;html=1;rounded=0;startArrow=ERoneToMany;startFill=0;endFill=0;" edge="1" parent="1" source="0di1fcBkROJIo35OJod3-12" target="0di1fcBkROJIo35OJod3-11">
          <mxGeometry width="50" height="50" relative="1" as="geometry">
            <mxPoint x="400" y="425" as="sourcePoint" />
            <mxPoint x="440" y="425" as="targetPoint" />
          </mxGeometry>
        </mxCell>
        <mxCell id="0di1fcBkROJIo35OJod3-17" value="&lt;u&gt;&lt;b&gt;SeatReservations&lt;/b&gt;&lt;/u&gt;&lt;br&gt;&lt;br&gt;&lt;b&gt;id&lt;/b&gt; (PK)&lt;br&gt;&lt;b&gt;seat_id&lt;/b&gt; (FK)&lt;br&gt;&lt;b&gt;screening_id&lt;/b&gt; (FK)&lt;br&gt;reserved_until&lt;br&gt;session_id" style="html=1;dashed=0;whiteSpace=wrap;fillColor=#dae8fc;strokeColor=#6c8ebf;" vertex="1" parent="1">
          <mxGeometry x="430" y="340" width="140" height="110" as="geometry" />
        </mxCell>
        <mxCell id="0di1fcBkROJIo35OJod3-18" value="" style="endArrow=ERmandOne;html=1;rounded=0;startArrow=ERmandOne;startFill=0;endFill=0;" edge="1" parent="1" source="0di1fcBkROJIo35OJod3-17" target="0di1fcBkROJIo35OJod3-12">
          <mxGeometry width="50" height="50" relative="1" as="geometry">
            <mxPoint x="560" y="440" as="sourcePoint" />
            <mxPoint x="600" y="440" as="targetPoint" />
          </mxGeometry>
        </mxCell>
        <mxCell id="0di1fcBkROJIo35OJod3-20" value="&lt;u&gt;&lt;b&gt;Tickets&lt;/b&gt;&lt;/u&gt;&lt;br&gt;&lt;br&gt;&lt;b&gt;id&lt;/b&gt; (PK)&lt;br&gt;&lt;b&gt;user_id&lt;/b&gt; (FK)&lt;br&gt;&lt;b&gt;screening_id&lt;/b&gt; (FK)&lt;br&gt;purchase_time&lt;br&gt;total_amount&lt;br&gt;status&lt;br&gt;payment_method" style="html=1;dashed=0;whiteSpace=wrap;fillColor=#dae8fc;strokeColor=#6c8ebf;" vertex="1" parent="1">
          <mxGeometry x="620" y="155" width="140" height="140" as="geometry" />
        </mxCell>
        <mxCell id="0di1fcBkROJIo35OJod3-21" value="&lt;u&gt;&lt;b&gt;TicketSeats&lt;/b&gt;&lt;/u&gt;&lt;br&gt;&lt;br&gt;&lt;b&gt;id&lt;/b&gt; (PK)&lt;br&gt;&lt;b&gt;ticket_id&lt;/b&gt; (FK)&lt;br&gt;&lt;b&gt;seat_id&lt;/b&gt; (FK)&lt;br&gt;price" style="html=1;dashed=0;whiteSpace=wrap;fillColor=#dae8fc;strokeColor=#6c8ebf;" vertex="1" parent="1">
          <mxGeometry x="620" y="370" width="140" height="90" as="geometry" />
        </mxCell>
        <mxCell id="0di1fcBkROJIo35OJod3-22" value="&lt;u&gt;&lt;b&gt;Refunds&lt;/b&gt;&lt;/u&gt;&lt;br&gt;&lt;br&gt;&lt;b&gt;id&lt;/b&gt; (PK)&lt;br&gt;&lt;b&gt;ticket_id&lt;/b&gt; (FK)&lt;br&gt;request_time&lt;br&gt;process_time&lt;br&gt;refund_amount&lt;br&gt;status&lt;br&gt;reason" style="html=1;dashed=0;whiteSpace=wrap;fillColor=#dae8fc;strokeColor=#6c8ebf;" vertex="1" parent="1">
          <mxGeometry x="810" y="155" width="140" height="140" as="geometry" />
        </mxCell>
        <mxCell id="0di1fcBkROJIo35OJod3-23" value="" style="endArrow=ERmandOne;html=1;rounded=0;startArrow=ERmany;startFill=0;endFill=0;" edge="1" parent="1" source="0di1fcBkROJIo35OJod3-20" target="0di1fcBkROJIo35OJod3-3">
          <mxGeometry width="50" height="50" relative="1" as="geometry">
            <mxPoint x="500" y="270" as="sourcePoint" />
            <mxPoint x="670" y="550" as="targetPoint" />
            <Array as="points" />
          </mxGeometry>
        </mxCell>
        <mxCell id="0di1fcBkROJIo35OJod3-25" value="" style="endArrow=ERmandOne;html=1;rounded=0;startArrow=ERmandOne;startFill=0;endFill=0;" edge="1" parent="1" source="0di1fcBkROJIo35OJod3-21" target="0di1fcBkROJIo35OJod3-20">
          <mxGeometry width="50" height="50" relative="1" as="geometry">
            <mxPoint x="670" y="690" as="sourcePoint" />
            <mxPoint x="670" y="730" as="targetPoint" />
          </mxGeometry>
        </mxCell>
        <mxCell id="0di1fcBkROJIo35OJod3-27" value="" style="endArrow=ERmandOne;html=1;rounded=0;startArrow=ERmandOne;startFill=0;endFill=0;" edge="1" parent="1" source="0di1fcBkROJIo35OJod3-22" target="0di1fcBkROJIo35OJod3-20">
          <mxGeometry width="50" height="50" relative="1" as="geometry">
            <mxPoint x="670" y="690" as="sourcePoint" />
            <mxPoint x="670" y="880" as="targetPoint" />
            <Array as="points" />
          </mxGeometry>
        </mxCell>
        <mxCell id="0di1fcBkROJIo35OJod3-29" value="" style="endArrow=ERmandOne;html=1;rounded=0;startArrow=ERmandOne;startFill=0;endFill=0;" edge="1" parent="1" source="0di1fcBkROJIo35OJod3-17" target="0di1fcBkROJIo35OJod3-3">
          <mxGeometry width="50" height="50" relative="1" as="geometry">
            <mxPoint x="500" y="270" as="sourcePoint" />
            <mxPoint x="670" y="370" as="targetPoint" />
            <Array as="points" />
          </mxGeometry>
        </mxCell>
        <mxCell id="0di1fcBkROJIo35OJod3-31" value="" style="endArrow=ERmandOne;html=1;rounded=0;startArrow=ERmandOne;startFill=0;endFill=0;" edge="1" parent="1" source="0di1fcBkROJIo35OJod3-21" target="0di1fcBkROJIo35OJod3-12">
          <mxGeometry width="50" height="50" relative="1" as="geometry">
            <mxPoint x="560" y="440" as="sourcePoint" />
            <mxPoint x="600" y="730" as="targetPoint" />
            <Array as="points" />
          </mxGeometry>
        </mxCell>
      </root>
    </mxGraphModel>
  </diagram>
  <diagram id="4W9zoIO3YKvqsuaJQBFT" name="Page-2">
    <mxGraphModel dx="2873" dy="1236" grid="1" gridSize="10" guides="1" tooltips="1" connect="1" arrows="1" fold="1" page="1" pageScale="1" pageWidth="850" pageHeight="1100" math="0" shadow="0">
      <root>
        <mxCell id="0" />
        <mxCell id="1" parent="0" />
        <mxCell id="O_zEfsSyvbPInKJlRXA2-1" value="" style="rounded=0;whiteSpace=wrap;html=1;" vertex="1" parent="1">
          <mxGeometry x="-770" y="250" width="640" height="530" as="geometry" />
        </mxCell>
        <mxCell id="O_zEfsSyvbPInKJlRXA2-2" value="&lt;b&gt;Docker&lt;/b&gt;" style="text;html=1;strokeColor=none;fillColor=none;align=center;verticalAlign=middle;whiteSpace=wrap;rounded=0;fontStyle=1;fontSize=18;" vertex="1" parent="1">
          <mxGeometry x="-730" y="730" width="70" height="30" as="geometry" />
        </mxCell>
        <mxCell id="O_zEfsSyvbPInKJlRXA2-3" value="&lt;b&gt;USER / CLIENT&lt;/b&gt;" style="shape=umlActor;verticalLabelPosition=bottom;verticalAlign=top;html=1;outlineConnect=0;" vertex="1" parent="1">
          <mxGeometry x="-480" y="130" width="30" height="60" as="geometry" />
        </mxCell>
        <mxCell id="O_zEfsSyvbPInKJlRXA2-4" value="" style="endArrow=classic;html=1;rounded=0;entryDx=0;entryDy=0;entryPerimeter=0;" edge="1" parent="1" target="O_zEfsSyvbPInKJlRXA2-6">
          <mxGeometry width="50" height="50" relative="1" as="geometry">
            <mxPoint x="-465" y="210" as="sourcePoint" />
            <mxPoint x="-465" y="260" as="targetPoint" />
          </mxGeometry>
        </mxCell>
        <mxCell id="O_zEfsSyvbPInKJlRXA2-5" value="&lt;b&gt;HTTP / HTTPS&lt;/b&gt;" style="edgeLabel;html=1;align=center;verticalAlign=middle;resizable=0;points=[];" vertex="1" connectable="0" parent="O_zEfsSyvbPInKJlRXA2-4">
          <mxGeometry x="-0.1667" y="-2" relative="1" as="geometry">
            <mxPoint x="52" y="-30" as="offset" />
          </mxGeometry>
        </mxCell>
        <mxCell id="O_zEfsSyvbPInKJlRXA2-6" value="&lt;b&gt;Load Balancer&lt;/b&gt;" style="shape=hexagon;perimeter=hexagonPerimeter2;whiteSpace=wrap;html=1;fillColor=#d5e8d4;strokeColor=#82b366;" vertex="1" parent="1">
          <mxGeometry x="-515" y="330" width="100" height="50" as="geometry" />
        </mxCell>
        <mxCell id="O_zEfsSyvbPInKJlRXA2-7" value="" style="endArrow=classic;html=1;rounded=0;exitDx=0;exitDy=0;exitPerimeter=0;" edge="1" parent="1" source="O_zEfsSyvbPInKJlRXA2-6">
          <mxGeometry width="50" height="50" relative="1" as="geometry">
            <mxPoint x="-500" y="310" as="sourcePoint" />
            <mxPoint x="-650" y="420" as="targetPoint" />
          </mxGeometry>
        </mxCell>
        <mxCell id="O_zEfsSyvbPInKJlRXA2-8" value="" style="endArrow=classic;html=1;rounded=0;exitDx=0;exitDy=0;exitPerimeter=0;" edge="1" parent="1" source="O_zEfsSyvbPInKJlRXA2-6">
          <mxGeometry width="50" height="50" relative="1" as="geometry">
            <mxPoint x="-430" y="310" as="sourcePoint" />
            <mxPoint x="-280" y="420" as="targetPoint" />
          </mxGeometry>
        </mxCell>
        <mxCell id="O_zEfsSyvbPInKJlRXA2-9" value="&lt;b&gt;Go API&lt;br&gt;Container 1&lt;/b&gt;" style="rounded=1;whiteSpace=wrap;html=1;fillColor=#f8cecc;strokeColor=#b85450;" vertex="1" parent="1">
          <mxGeometry x="-700" y="420" width="100" height="60" as="geometry" />
        </mxCell>
        <mxCell id="O_zEfsSyvbPInKJlRXA2-10" value="&lt;b&gt;Go API&lt;br&gt;Container 2&lt;/b&gt;" style="rounded=1;whiteSpace=wrap;html=1;fillColor=#f8cecc;strokeColor=#b85450;" vertex="1" parent="1">
          <mxGeometry x="-330" y="420" width="100" height="60" as="geometry" />
        </mxCell>
        <mxCell id="O_zEfsSyvbPInKJlRXA2-11" value="&lt;b&gt;Internal Network&lt;/b&gt;" style="shape=cylinder;whiteSpace=wrap;html=1;rounded=1;fillColor=#ffe6cc;strokeColor=#d79b00;" vertex="1" parent="1">
          <mxGeometry x="-515" y="570" width="100" height="60" as="geometry" />
        </mxCell>
        <mxCell id="O_zEfsSyvbPInKJlRXA2-12" value="&lt;b&gt;Database (PostgreSQL)&lt;/b&gt;" style="shape=cylinder;whiteSpace=wrap;html=1;rounded=1;fillColor=#f5f5f5;strokeColor=#666666;" vertex="1" parent="1">
          <mxGeometry x="-555" y="670" width="180" height="60" as="geometry" />
        </mxCell>
        <mxCell id="O_zEfsSyvbPInKJlRXA2-13" value="" style="endArrow=classic;html=1;rounded=0;entryDx=0;entryDy=0;entryPerimeter=0;exitDx=0.5;exitDy=1;exitPerimeter=0;" edge="1" parent="1" source="O_zEfsSyvbPInKJlRXA2-9" target="O_zEfsSyvbPInKJlRXA2-11">
          <mxGeometry width="50" height="50" relative="1" as="geometry">
            <mxPoint x="-650" y="510" as="sourcePoint" />
            <mxPoint x="-515" y="510" as="targetPoint" />
          </mxGeometry>
        </mxCell>
        <mxCell id="O_zEfsSyvbPInKJlRXA2-14" value="" style="endArrow=classic;html=1;rounded=0;entryDx=0;entryDy=0;entryPerimeter=0;exitDx=0.5;exitDy=1;exitPerimeter=0;" edge="1" parent="1" source="O_zEfsSyvbPInKJlRXA2-10" target="O_zEfsSyvbPInKJlRXA2-11">
          <mxGeometry width="50" height="50" relative="1" as="geometry">
            <mxPoint x="-280" y="510" as="sourcePoint" />
            <mxPoint x="-415" y="510" as="targetPoint" />
          </mxGeometry>
        </mxCell>
        <mxCell id="O_zEfsSyvbPInKJlRXA2-15" value="" style="endArrow=classic;html=1;rounded=0;entryDx=0.5;entryDy=0;entryPerimeter=0;exitDx=0.5;exitDy=1;exitPerimeter=0;" edge="1" parent="1" source="O_zEfsSyvbPInKJlRXA2-11" target="O_zEfsSyvbPInKJlRXA2-12">
          <mxGeometry width="50" height="50" relative="1" as="geometry">
            <mxPoint x="-465" y="650" as="sourcePoint" />
            <mxPoint x="-465" y="700" as="targetPoint" />
          </mxGeometry>
        </mxCell>
      </root>
    </mxGraphModel>
  </diagram>
  <diagram id="1tJHrQExwv2KBQjA_pAZ" name="Page-3">
    <mxGraphModel dx="1416" dy="865" grid="1" gridSize="10" guides="1" tooltips="1" connect="1" arrows="1" fold="1" page="1" pageScale="1" pageWidth="850" pageHeight="1100" math="0" shadow="0">
      <root>
        <mxCell id="0" />
        <mxCell id="1" parent="0" />
        <mxCell id="-pOYXjtAaAWwMsyDgRYP-1" value="Customer" style="rounded=1;whiteSpace=wrap;html=1;" vertex="1" parent="1">
          <mxGeometry x="140" y="270" width="120" height="60" as="geometry" />
        </mxCell>
        <mxCell id="-pOYXjtAaAWwMsyDgRYP-2" value="" style="endArrow=classic;html=1;rounded=0;" edge="1" parent="1" source="-pOYXjtAaAWwMsyDgRYP-1" target="-pOYXjtAaAWwMsyDgRYP-3">
          <mxGeometry width="50" height="50" relative="1" as="geometry">
            <mxPoint x="200" y="330" as="sourcePoint" />
            <mxPoint x="200" y="370" as="targetPoint" />
          </mxGeometry>
        </mxCell>
        <mxCell id="-pOYXjtAaAWwMsyDgRYP-3" value="Cari Jadwal Film" style="rounded=1;whiteSpace=wrap;html=1;" vertex="1" parent="1">
          <mxGeometry x="140" y="370" width="120" height="60" as="geometry" />
        </mxCell>
        <mxCell id="-pOYXjtAaAWwMsyDgRYP-4" value="Pilih Kota" style="rounded=0;whiteSpace=wrap;html=1;align=left;" vertex="1" parent="1">
          <mxGeometry x="290" y="355" width="120" height="20" as="geometry" />
        </mxCell>
        <mxCell id="-pOYXjtAaAWwMsyDgRYP-5" value="Pilih Bioskop" style="rounded=0;whiteSpace=wrap;html=1;align=left;" vertex="1" parent="1">
          <mxGeometry x="290" y="380" width="120" height="20" as="geometry" />
        </mxCell>
        <mxCell id="-pOYXjtAaAWwMsyDgRYP-6" value="Pilih Tanggal/Waktu" style="rounded=0;whiteSpace=wrap;html=1;align=left;" vertex="1" parent="1">
          <mxGeometry x="290" y="405" width="120" height="20" as="geometry" />
        </mxCell>
        <mxCell id="-pOYXjtAaAWwMsyDgRYP-7" value="" style="endArrow=classic;html=1;rounded=0;" edge="1" parent="1" source="-pOYXjtAaAWwMsyDgRYP-3" target="-pOYXjtAaAWwMsyDgRYP-8">
          <mxGeometry width="50" height="50" relative="1" as="geometry">
            <mxPoint x="200" y="430" as="sourcePoint" />
            <mxPoint x="200" y="470" as="targetPoint" />
          </mxGeometry>
        </mxCell>
        <mxCell id="-pOYXjtAaAWwMsyDgRYP-8" value="Pilih Kursi" style="rounded=1;whiteSpace=wrap;html=1;" vertex="1" parent="1">
          <mxGeometry x="140" y="470" width="120" height="60" as="geometry" />
        </mxCell>
        <mxCell id="-pOYXjtAaAWwMsyDgRYP-9" value="Tampilkan Layout Kursi" style="rounded=0;whiteSpace=wrap;html=1;align=left;" vertex="1" parent="1">
          <mxGeometry x="290" y="480" width="150" height="20" as="geometry" />
        </mxCell>
        <mxCell id="-pOYXjtAaAWwMsyDgRYP-10" value="Pilih Kursi Kosong" style="rounded=0;whiteSpace=wrap;html=1;align=left;" vertex="1" parent="1">
          <mxGeometry x="290" y="505" width="150" height="20" as="geometry" />
        </mxCell>
        <mxCell id="-pOYXjtAaAWwMsyDgRYP-11" value="" style="endArrow=classic;html=1;rounded=0;" edge="1" parent="1" source="-pOYXjtAaAWwMsyDgRYP-8" target="-pOYXjtAaAWwMsyDgRYP-12">
          <mxGeometry width="50" height="50" relative="1" as="geometry">
            <mxPoint x="200" y="530" as="sourcePoint" />
            <mxPoint x="200" y="570" as="targetPoint" />
          </mxGeometry>
        </mxCell>
        <mxCell id="-pOYXjtAaAWwMsyDgRYP-12" value="Proses Pembayaran" style="rounded=1;whiteSpace=wrap;html=1;" vertex="1" parent="1">
          <mxGeometry x="140" y="570" width="120" height="60" as="geometry" />
        </mxCell>
        <mxCell id="-pOYXjtAaAWwMsyDgRYP-13" value="Pilih Metode Bayar" style="rounded=0;whiteSpace=wrap;html=1;align=left;" vertex="1" parent="1">
          <mxGeometry x="290" y="580" width="140" height="20" as="geometry" />
        </mxCell>
        <mxCell id="-pOYXjtAaAWwMsyDgRYP-14" value="Verifikasi Pembayaran" style="rounded=0;whiteSpace=wrap;html=1;align=left;" vertex="1" parent="1">
          <mxGeometry x="290" y="605" width="140" height="20" as="geometry" />
        </mxCell>
        <mxCell id="-pOYXjtAaAWwMsyDgRYP-15" value="" style="endArrow=classic;html=1;rounded=0;" edge="1" parent="1" source="-pOYXjtAaAWwMsyDgRYP-12" target="-pOYXjtAaAWwMsyDgRYP-16">
          <mxGeometry width="50" height="50" relative="1" as="geometry">
            <mxPoint x="200" y="630" as="sourcePoint" />
            <mxPoint x="200" y="670" as="targetPoint" />
          </mxGeometry>
        </mxCell>
        <mxCell id="-pOYXjtAaAWwMsyDgRYP-16" value="Konfirmasi &amp; Tiket" style="rounded=1;whiteSpace=wrap;html=1;" vertex="1" parent="1">
          <mxGeometry x="140" y="670" width="120" height="60" as="geometry" />
        </mxCell>
        <mxCell id="-pOYXjtAaAWwMsyDgRYP-17" value="Generate E-Ticket" style="rounded=0;whiteSpace=wrap;html=1;align=left;" vertex="1" parent="1">
          <mxGeometry x="290" y="680" width="130" height="20" as="geometry" />
        </mxCell>
        <mxCell id="-pOYXjtAaAWwMsyDgRYP-18" value="Kirim Email/SMS" style="rounded=0;whiteSpace=wrap;html=1;align=left;" vertex="1" parent="1">
          <mxGeometry x="290" y="705" width="130" height="20" as="geometry" />
        </mxCell>
        <mxCell id="-pOYXjtAaAWwMsyDgRYP-19" value="" style="endArrow=classic;html=1;rounded=0;" edge="1" parent="1" source="-pOYXjtAaAWwMsyDgRYP-16" target="-pOYXjtAaAWwMsyDgRYP-20">
          <mxGeometry width="50" height="50" relative="1" as="geometry">
            <mxPoint x="200" y="730" as="sourcePoint" />
            <mxPoint x="200" y="770" as="targetPoint" />
          </mxGeometry>
        </mxCell>
        <mxCell id="-pOYXjtAaAWwMsyDgRYP-20" value="Selesai" style="rounded=1;whiteSpace=wrap;html=1;" vertex="1" parent="1">
          <mxGeometry x="140" y="770" width="120" height="60" as="geometry" />
        </mxCell>
        <mxCell id="-pOYXjtAaAWwMsyDgRYP-21" value="Permintaan Refund" style="rounded=1;whiteSpace=wrap;html=1;" vertex="1" parent="1">
          <mxGeometry x="510" y="270" width="120" height="60" as="geometry" />
        </mxCell>
        <mxCell id="-pOYXjtAaAWwMsyDgRYP-22" value="" style="endArrow=classic;html=1;rounded=0;" edge="1" parent="1" source="-pOYXjtAaAWwMsyDgRYP-21" target="-pOYXjtAaAWwMsyDgRYP-23">
          <mxGeometry width="50" height="50" relative="1" as="geometry">
            <mxPoint x="570" y="330" as="sourcePoint" />
            <mxPoint x="570" y="370" as="targetPoint" />
          </mxGeometry>
        </mxCell>
        <mxCell id="-pOYXjtAaAWwMsyDgRYP-23" value="Validasi Refund" style="rounded=1;whiteSpace=wrap;html=1;" vertex="1" parent="1">
          <mxGeometry x="510" y="370" width="120" height="60" as="geometry" />
        </mxCell>
        <mxCell id="-pOYXjtAaAWwMsyDgRYP-24" value="Cek Kebijakan" style="rounded=0;whiteSpace=wrap;html=1;align=left;" vertex="1" parent="1">
          <mxGeometry x="660" y="380" width="120" height="20" as="geometry" />
        </mxCell>
        <mxCell id="-pOYXjtAaAWwMsyDgRYP-25" value="Verifikasi Data" style="rounded=0;whiteSpace=wrap;html=1;align=left;" vertex="1" parent="1">
          <mxGeometry x="660" y="405" width="120" height="20" as="geometry" />
        </mxCell>
        <mxCell id="-pOYXjtAaAWwMsyDgRYP-26" value="" style="endArrow=classic;html=1;rounded=0;" edge="1" parent="1" source="-pOYXjtAaAWwMsyDgRYP-23" target="-pOYXjtAaAWwMsyDgRYP-27">
          <mxGeometry width="50" height="50" relative="1" as="geometry">
            <mxPoint x="570" y="430" as="sourcePoint" />
            <mxPoint x="570" y="470" as="targetPoint" />
          </mxGeometry>
        </mxCell>
        <mxCell id="-pOYXjtAaAWwMsyDgRYP-27" value="Proses Refund" style="rounded=1;whiteSpace=wrap;html=1;" vertex="1" parent="1">
          <mxGeometry x="510" y="470" width="120" height="60" as="geometry" />
        </mxCell>
        <mxCell id="-pOYXjtAaAWwMsyDgRYP-28" value="Kembalikan Dana" style="rounded=0;whiteSpace=wrap;html=1;align=left;" vertex="1" parent="1">
          <mxGeometry x="660" y="480" width="130" height="20" as="geometry" />
        </mxCell>
        <mxCell id="-pOYXjtAaAWwMsyDgRYP-29" value="Batalkan Tiket" style="rounded=0;whiteSpace=wrap;html=1;align=left;" vertex="1" parent="1">
          <mxGeometry x="660" y="505" width="130" height="20" as="geometry" />
        </mxCell>
        <mxCell id="-pOYXjtAaAWwMsyDgRYP-30" value="" style="endArrow=classic;html=1;rounded=0;" edge="1" parent="1" source="-pOYXjtAaAWwMsyDgRYP-27" target="-pOYXjtAaAWwMsyDgRYP-31">
          <mxGeometry width="50" height="50" relative="1" as="geometry">
            <mxPoint x="570" y="530" as="sourcePoint" />
            <mxPoint x="570" y="570" as="targetPoint" />
          </mxGeometry>
        </mxCell>
        <mxCell id="-pOYXjtAaAWwMsyDgRYP-31" value="Restok Kursi" style="rounded=1;whiteSpace=wrap;html=1;" vertex="1" parent="1">
          <mxGeometry x="510" y="570" width="120" height="60" as="geometry" />
        </mxCell>
        <mxCell id="-pOYXjtAaAWwMsyDgRYP-32" value="Kembalikan Kursi ke Pool Available" style="rounded=0;whiteSpace=wrap;html=1;align=left;" vertex="1" parent="1">
          <mxGeometry x="660" y="590" width="220" height="20" as="geometry" />
        </mxCell>
        <mxCell id="-pOYXjtAaAWwMsyDgRYP-33" value="" style="endArrow=classic;html=1;rounded=0;" edge="1" parent="1" source="-pOYXjtAaAWwMsyDgRYP-31" target="-pOYXjtAaAWwMsyDgRYP-34">
          <mxGeometry width="50" height="50" relative="1" as="geometry">
            <mxPoint x="570" y="630" as="sourcePoint" />
            <mxPoint x="570" y="670" as="targetPoint" />
          </mxGeometry>
        </mxCell>
        <mxCell id="-pOYXjtAaAWwMsyDgRYP-34" value="Konfirmasi Refund" style="rounded=1;whiteSpace=wrap;html=1;" vertex="1" parent="1">
          <mxGeometry x="510" y="670" width="120" height="60" as="geometry" />
        </mxCell>
        <mxCell id="-pOYXjtAaAWwMsyDgRYP-35" value="Kirim Notifikasi" style="rounded=0;whiteSpace=wrap;html=1;align=left;" vertex="1" parent="1">
          <mxGeometry x="660" y="690" width="110" height="20" as="geometry" />
        </mxCell>
      </root>
    </mxGraphModel>
  </diagram>
  <diagram id="Km5XtZjyJkNOMOaYLgkL" name="Page-4">
    <mxGraphModel dx="1089" dy="665" grid="1" gridSize="10" guides="1" tooltips="1" connect="1" arrows="1" fold="1" page="1" pageScale="1" pageWidth="850" pageHeight="1100" math="0" shadow="0">
      <root>
        <mxCell id="0" />
        <mxCell id="1" parent="0" />
        <mxCell id="W2terURq2gF2Tv0Pd2DD-196" value="" style="rounded=0;whiteSpace=wrap;html=1;" vertex="1" parent="1">
          <mxGeometry x="1100" y="1220" width="780" height="290" as="geometry" />
        </mxCell>
        <mxCell id="W2terURq2gF2Tv0Pd2DD-199" style="edgeStyle=orthogonalEdgeStyle;rounded=0;orthogonalLoop=1;jettySize=auto;html=1;entryX=0.5;entryY=0;entryDx=0;entryDy=0;" edge="1" parent="1" source="W2terURq2gF2Tv0Pd2DD-195" target="W2terURq2gF2Tv0Pd2DD-196">
          <mxGeometry relative="1" as="geometry" />
        </mxCell>
        <mxCell id="W2terURq2gF2Tv0Pd2DD-195" value="" style="rounded=0;whiteSpace=wrap;html=1;" vertex="1" parent="1">
          <mxGeometry x="1100" y="850" width="780" height="290" as="geometry" />
        </mxCell>
        <mxCell id="W2terURq2gF2Tv0Pd2DD-198" style="edgeStyle=orthogonalEdgeStyle;rounded=0;orthogonalLoop=1;jettySize=auto;html=1;entryX=0.5;entryY=0;entryDx=0;entryDy=0;" edge="1" parent="1" source="W2terURq2gF2Tv0Pd2DD-192" target="W2terURq2gF2Tv0Pd2DD-195">
          <mxGeometry relative="1" as="geometry" />
        </mxCell>
        <mxCell id="W2terURq2gF2Tv0Pd2DD-192" value="" style="rounded=0;whiteSpace=wrap;html=1;" vertex="1" parent="1">
          <mxGeometry x="1105" y="560" width="770" height="210" as="geometry" />
        </mxCell>
        <mxCell id="W2terURq2gF2Tv0Pd2DD-197" style="edgeStyle=orthogonalEdgeStyle;rounded=0;orthogonalLoop=1;jettySize=auto;html=1;entryX=0.5;entryY=0;entryDx=0;entryDy=0;" edge="1" parent="1" source="W2terURq2gF2Tv0Pd2DD-191" target="W2terURq2gF2Tv0Pd2DD-192">
          <mxGeometry relative="1" as="geometry" />
        </mxCell>
        <mxCell id="W2terURq2gF2Tv0Pd2DD-191" value="" style="rounded=0;whiteSpace=wrap;html=1;" vertex="1" parent="1">
          <mxGeometry x="1105" y="250" width="770" height="190" as="geometry" />
        </mxCell>
        <mxCell id="W2terURq2gF2Tv0Pd2DD-1" value="&lt;font size=&quot;4&quot;&gt;&lt;b&gt;CINEMA TICKET BOOKING API&lt;/b&gt;&lt;/font&gt;&lt;br&gt;System Architecture" style="text;html=1;align=center;verticalAlign=middle;resizable=0;points=[];autosize=1;strokeColor=none;fillColor=none;" vertex="1" parent="1">
          <mxGeometry x="540" y="280" width="220" height="40" as="geometry" />
        </mxCell>
        <mxCell id="W2terURq2gF2Tv0Pd2DD-2" value="&lt;b&gt;Client&lt;/b&gt;&lt;br&gt;(Web/Mobile)" style="rounded=1;whiteSpace=wrap;html=1;" vertex="1" parent="1">
          <mxGeometry x="290" y="360" width="120" height="60" as="geometry" />
        </mxCell>
        <mxCell id="W2terURq2gF2Tv0Pd2DD-3" value="&lt;b&gt;Load Balancer&lt;/b&gt;&lt;br&gt;(Nginx/Cloud LB)" style="rounded=1;whiteSpace=wrap;html=1;" vertex="1" parent="1">
          <mxGeometry x="460" y="360" width="120" height="60" as="geometry" />
        </mxCell>
        <mxCell id="W2terURq2gF2Tv0Pd2DD-4" value="&lt;b&gt;API Gateway&lt;/b&gt;&lt;br&gt;(Gin Router)" style="rounded=1;whiteSpace=wrap;html=1;" vertex="1" parent="1">
          <mxGeometry x="630" y="360" width="120" height="60" as="geometry" />
        </mxCell>
        <mxCell id="W2terURq2gF2Tv0Pd2DD-5" value="&lt;b&gt;Redis Cache&lt;/b&gt;" style="rounded=1;whiteSpace=wrap;html=1;" vertex="1" parent="1">
          <mxGeometry x="800" y="360" width="120" height="60" as="geometry" />
        </mxCell>
        <mxCell id="W2terURq2gF2Tv0Pd2DD-6" value="" style="endArrow=classic;html=1;rounded=0;exitX=1;exitY=0.5;exitDx=0;exitDy=0;entryX=0;entryY=0.5;entryDx=0;entryDy=0;" edge="1" parent="1" source="W2terURq2gF2Tv0Pd2DD-2" target="W2terURq2gF2Tv0Pd2DD-3">
          <mxGeometry width="50" height="50" relative="1" as="geometry">
            <mxPoint x="420" y="390" as="sourcePoint" />
            <mxPoint x="470" y="390" as="targetPoint" />
          </mxGeometry>
        </mxCell>
        <mxCell id="W2terURq2gF2Tv0Pd2DD-7" value="HTTP/S" style="text;html=1;align=center;verticalAlign=middle;resizable=0;points=[];autosize=1;strokeColor=none;fillColor=none;" vertex="1" parent="1">
          <mxGeometry x="410" y="390" width="50" height="20" as="geometry" />
        </mxCell>
        <mxCell id="W2terURq2gF2Tv0Pd2DD-8" value="" style="endArrow=classic;html=1;rounded=0;exitX=1;exitY=0.5;exitDx=0;exitDy=0;entryX=0;entryY=0.5;entryDx=0;entryDy=0;" edge="1" parent="1" source="W2terURq2gF2Tv0Pd2DD-3" target="W2terURq2gF2Tv0Pd2DD-4">
          <mxGeometry width="50" height="50" relative="1" as="geometry">
            <mxPoint x="590" y="390" as="sourcePoint" />
            <mxPoint x="640" y="390" as="targetPoint" />
          </mxGeometry>
        </mxCell>
        <mxCell id="W2terURq2gF2Tv0Pd2DD-9" value="" style="endArrow=classic;html=1;rounded=0;exitX=1;exitY=0.5;exitDx=0;exitDy=0;entryX=0;entryY=0.5;entryDx=0;entryDy=0;" edge="1" parent="1" source="W2terURq2gF2Tv0Pd2DD-4" target="W2terURq2gF2Tv0Pd2DD-5">
          <mxGeometry width="50" height="50" relative="1" as="geometry">
            <mxPoint x="760" y="390" as="sourcePoint" />
            <mxPoint x="810" y="390" as="targetPoint" />
          </mxGeometry>
        </mxCell>
        <mxCell id="W2terURq2gF2Tv0Pd2DD-10" value="&lt;b&gt;CDN/Static Content&lt;/b&gt;" style="rounded=1;whiteSpace=wrap;html=1;" vertex="1" parent="1">
          <mxGeometry x="290" y="480" width="120" height="60" as="geometry" />
        </mxCell>
        <mxCell id="W2terURq2gF2Tv0Pd2DD-11" value="&lt;b&gt;Service Mesh&lt;/b&gt;&lt;br&gt;(Istio/Linkerd)" style="rounded=1;whiteSpace=wrap;html=1;" vertex="1" parent="1">
          <mxGeometry x="460" y="480" width="120" height="60" as="geometry" />
        </mxCell>
        <mxCell id="W2terURq2gF2Tv0Pd2DD-133" style="edgeStyle=orthogonalEdgeStyle;rounded=0;orthogonalLoop=1;jettySize=auto;html=1;" edge="1" parent="1" source="W2terURq2gF2Tv0Pd2DD-12" target="W2terURq2gF2Tv0Pd2DD-13">
          <mxGeometry relative="1" as="geometry" />
        </mxCell>
        <mxCell id="W2terURq2gF2Tv0Pd2DD-12" value="&lt;b&gt;Microservices&lt;/b&gt;&lt;br&gt;Cluster" style="rounded=1;whiteSpace=wrap;html=1;" vertex="1" parent="1">
          <mxGeometry x="630" y="480" width="120" height="60" as="geometry" />
        </mxCell>
        <mxCell id="W2terURq2gF2Tv0Pd2DD-13" value="&lt;b&gt;PostgreSQL&lt;/b&gt;&lt;br&gt;Database" style="rounded=1;whiteSpace=wrap;html=1;" vertex="1" parent="1">
          <mxGeometry x="800" y="480" width="120" height="60" as="geometry" />
        </mxCell>
        <mxCell id="W2terURq2gF2Tv0Pd2DD-14" value="" style="endArrow=classic;html=1;rounded=0;exitX=0.5;exitY=1;exitDx=0;exitDy=0;entryX=0.5;entryY=0;entryDx=0;entryDy=0;" edge="1" parent="1" source="W2terURq2gF2Tv0Pd2DD-4" target="W2terURq2gF2Tv0Pd2DD-12">
          <mxGeometry width="50" height="50" relative="1" as="geometry">
            <mxPoint x="690" y="430" as="sourcePoint" />
            <mxPoint x="690" y="480" as="targetPoint" />
          </mxGeometry>
        </mxCell>
        <mxCell id="W2terURq2gF2Tv0Pd2DD-15" value="&lt;b&gt;Payment Gateway&lt;/b&gt;&lt;br&gt;Integration" style="rounded=1;whiteSpace=wrap;html=1;" vertex="1" parent="1">
          <mxGeometry x="290" y="600" width="120" height="60" as="geometry" />
        </mxCell>
        <mxCell id="W2terURq2gF2Tv0Pd2DD-16" value="&lt;b&gt;Notification&lt;/b&gt;&lt;br&gt;Service (Email/SMS)" style="rounded=1;whiteSpace=wrap;html=1;" vertex="1" parent="1">
          <mxGeometry x="460" y="600" width="120" height="60" as="geometry" />
        </mxCell>
        <mxCell id="W2terURq2gF2Tv0Pd2DD-17" value="&lt;b&gt;Monitoring &amp;amp; Logging&lt;/b&gt;&lt;br&gt;(Prometheus/Grafana)" style="rounded=1;whiteSpace=wrap;html=1;" vertex="1" parent="1">
          <mxGeometry x="630" y="600" width="120" height="60" as="geometry" />
        </mxCell>
        <mxCell id="W2terURq2gF2Tv0Pd2DD-18" value="&lt;b&gt;Backup&lt;/b&gt;&lt;br&gt;System" style="rounded=1;whiteSpace=wrap;html=1;" vertex="1" parent="1">
          <mxGeometry x="800" y="600" width="120" height="60" as="geometry" />
        </mxCell>
        <mxCell id="W2terURq2gF2Tv0Pd2DD-19" value="" style="endArrow=classic;html=1;rounded=0;exitX=0.5;exitY=1;exitDx=0;exitDy=0;entryX=0.5;entryY=0;entryDx=0;entryDy=0;" edge="1" parent="1" source="W2terURq2gF2Tv0Pd2DD-13" target="W2terURq2gF2Tv0Pd2DD-18">
          <mxGeometry width="50" height="50" relative="1" as="geometry">
            <mxPoint x="860" y="550" as="sourcePoint" />
            <mxPoint x="860" y="600" as="targetPoint" />
          </mxGeometry>
        </mxCell>
        <mxCell id="W2terURq2gF2Tv0Pd2DD-21" value="Web Browser&lt;br&gt;(React/Vue)" style="rounded=1;whiteSpace=wrap;html=1;" vertex="1" parent="1">
          <mxGeometry x="1150" y="330" width="120" height="60" as="geometry" />
        </mxCell>
        <mxCell id="W2terURq2gF2Tv0Pd2DD-22" value="Mobile App&lt;br&gt;(iOS/Android)" style="rounded=1;whiteSpace=wrap;html=1;" vertex="1" parent="1">
          <mxGeometry x="1290" y="330" width="120" height="60" as="geometry" />
        </mxCell>
        <mxCell id="W2terURq2gF2Tv0Pd2DD-23" value="Third-party&lt;br&gt;Integrations" style="rounded=1;whiteSpace=wrap;html=1;" vertex="1" parent="1">
          <mxGeometry x="1430" y="330" width="120" height="60" as="geometry" />
        </mxCell>
        <mxCell id="W2terURq2gF2Tv0Pd2DD-24" value="Admin Portal&lt;br&gt;(Dashboard)" style="rounded=1;whiteSpace=wrap;html=1;" vertex="1" parent="1">
          <mxGeometry x="1570" y="330" width="120" height="60" as="geometry" />
        </mxCell>
        <mxCell id="W2terURq2gF2Tv0Pd2DD-25" value="Point-of-Sale&lt;br&gt;(Terminal)" style="rounded=1;whiteSpace=wrap;html=1;" vertex="1" parent="1">
          <mxGeometry x="1710" y="330" width="120" height="60" as="geometry" />
        </mxCell>
        <mxCell id="W2terURq2gF2Tv0Pd2DD-27" value="Rate Limiting" style="rounded=1;whiteSpace=wrap;html=1;" vertex="1" parent="1">
          <mxGeometry x="1150" y="620" width="120" height="60" as="geometry" />
        </mxCell>
        <mxCell id="W2terURq2gF2Tv0Pd2DD-28" value="Auth Middleware&lt;br&gt;(JWT)" style="rounded=1;whiteSpace=wrap;html=1;" vertex="1" parent="1">
          <mxGeometry x="1290" y="620" width="120" height="60" as="geometry" />
        </mxCell>
        <mxCell id="W2terURq2gF2Tv0Pd2DD-29" value="Request Validation" style="rounded=1;whiteSpace=wrap;html=1;" vertex="1" parent="1">
          <mxGeometry x="1430" y="620" width="120" height="60" as="geometry" />
        </mxCell>
        <mxCell id="W2terURq2gF2Tv0Pd2DD-30" value="Response Transformation" style="rounded=1;whiteSpace=wrap;html=1;" vertex="1" parent="1">
          <mxGeometry x="1570" y="620" width="120" height="60" as="geometry" />
        </mxCell>
        <mxCell id="W2terURq2gF2Tv0Pd2DD-31" value="Caching Layer&lt;br&gt;(Redis)" style="rounded=1;whiteSpace=wrap;html=1;" vertex="1" parent="1">
          <mxGeometry x="1150" y="700" width="120" height="60" as="geometry" />
        </mxCell>
        <mxCell id="W2terURq2gF2Tv0Pd2DD-32" value="Logging Middleware" style="rounded=1;whiteSpace=wrap;html=1;" vertex="1" parent="1">
          <mxGeometry x="1695" y="700" width="120" height="60" as="geometry" />
        </mxCell>
        <mxCell id="W2terURq2gF2Tv0Pd2DD-33" value="Metrics Collection" style="rounded=1;whiteSpace=wrap;html=1;" vertex="1" parent="1">
          <mxGeometry x="1430" y="700" width="120" height="60" as="geometry" />
        </mxCell>
        <mxCell id="W2terURq2gF2Tv0Pd2DD-34" value="Load Balancing" style="rounded=1;whiteSpace=wrap;html=1;" vertex="1" parent="1">
          <mxGeometry x="1700" y="620" width="120" height="60" as="geometry" />
        </mxCell>
        <mxCell id="W2terURq2gF2Tv0Pd2DD-36" value="&lt;b&gt;AUTH SERVICE&lt;/b&gt;&lt;br&gt;- User Authentication&lt;br&gt;- JWT Token Generation&lt;br&gt;- Password Management&lt;br&gt;- Session Management" style="rounded=1;whiteSpace=wrap;html=1;" vertex="1" parent="1">
          <mxGeometry x="1160" y="920" width="170" height="100" as="geometry" />
        </mxCell>
        <mxCell id="W2terURq2gF2Tv0Pd2DD-37" value="&lt;b&gt;BOOKING SERVICE&lt;/b&gt;&lt;br&gt;- Seat Reservation&lt;br&gt;- Ticket Purchase&lt;br&gt;- Payment Processing&lt;br&gt;- Booking History" style="rounded=1;whiteSpace=wrap;html=1;" vertex="1" parent="1">
          <mxGeometry x="1350" y="920" width="170" height="100" as="geometry" />
        </mxCell>
        <mxCell id="W2terURq2gF2Tv0Pd2DD-38" value="&lt;b&gt;MOVIE SERVICE&lt;/b&gt;&lt;br&gt;- Movie Catalog&lt;br&gt;- Showtimes&lt;br&gt;- Theaters&lt;br&gt;- Screenings" style="rounded=1;whiteSpace=wrap;html=1;" vertex="1" parent="1">
          <mxGeometry x="1540" y="920" width="170" height="100" as="geometry" />
        </mxCell>
        <mxCell id="W2terURq2gF2Tv0Pd2DD-39" value="&lt;b&gt;PAYMENT SERVICE&lt;/b&gt;&lt;br&gt;- Payment Gateway Integration&lt;br&gt;- Transaction Management&lt;br&gt;- Refund Processing" style="rounded=1;whiteSpace=wrap;html=1;" vertex="1" parent="1">
          <mxGeometry x="1160" y="1040" width="170" height="80" as="geometry" />
        </mxCell>
        <mxCell id="W2terURq2gF2Tv0Pd2DD-40" value="&lt;b&gt;NOTIFICATION SERVICE&lt;/b&gt;&lt;br&gt;- Email Notifications&lt;br&gt;- SMS Notifications&lt;br&gt;- Push Notifications" style="rounded=1;whiteSpace=wrap;html=1;" vertex="1" parent="1">
          <mxGeometry x="1350" y="1040" width="170" height="80" as="geometry" />
        </mxCell>
        <mxCell id="W2terURq2gF2Tv0Pd2DD-41" value="&lt;b&gt;ADMIN SERVICE&lt;/b&gt;&lt;br&gt;- CRUD Operations&lt;br&gt;- Analytics&lt;br&gt;- Reporting" style="rounded=1;whiteSpace=wrap;html=1;" vertex="1" parent="1">
          <mxGeometry x="1540" y="1040" width="170" height="80" as="geometry" />
        </mxCell>
        <mxCell id="W2terURq2gF2Tv0Pd2DD-43" value="PostgreSQL&lt;br&gt;Primary Database" style="rounded=1;whiteSpace=wrap;html=1;" vertex="1" parent="1">
          <mxGeometry x="1165" y="1290" width="120" height="60" as="geometry" />
        </mxCell>
        <mxCell id="W2terURq2gF2Tv0Pd2DD-44" value="Redis&lt;br&gt;Cache &amp;amp; Session Store" style="rounded=1;whiteSpace=wrap;html=1;" vertex="1" parent="1">
          <mxGeometry x="1305" y="1290" width="120" height="60" as="geometry" />
        </mxCell>
        <mxCell id="W2terURq2gF2Tv0Pd2DD-45" value="Elasticsearch&lt;br&gt;(Logging &amp;amp; Search)" style="rounded=1;whiteSpace=wrap;html=1;" vertex="1" parent="1">
          <mxGeometry x="1445" y="1290" width="120" height="60" as="geometry" />
        </mxCell>
        <mxCell id="W2terURq2gF2Tv0Pd2DD-46" value="Object Storage&lt;br&gt;(Images, Documents)" style="rounded=1;whiteSpace=wrap;html=1;" vertex="1" parent="1">
          <mxGeometry x="1585" y="1290" width="120" height="60" as="geometry" />
        </mxCell>
        <mxCell id="W2terURq2gF2Tv0Pd2DD-47" value="PostgreSQL Replicas&lt;br&gt;(Read-only)" style="rounded=1;whiteSpace=wrap;html=1;" vertex="1" parent="1">
          <mxGeometry x="1165" y="1370" width="120" height="60" as="geometry" />
        </mxCell>
        <mxCell id="W2terURq2gF2Tv0Pd2DD-48" value="Backup System&lt;br&gt;(WAL-E, Barman)" style="rounded=1;whiteSpace=wrap;html=1;" vertex="1" parent="1">
          <mxGeometry x="1305" y="1370" width="120" height="60" as="geometry" />
        </mxCell>
        <mxCell id="W2terURq2gF2Tv0Pd2DD-49" value="Monitoring Database&lt;br&gt;(TimescaleDB)" style="rounded=1;whiteSpace=wrap;html=1;" vertex="1" parent="1">
          <mxGeometry x="1445" y="1370" width="120" height="60" as="geometry" />
        </mxCell>
        <mxCell id="W2terURq2gF2Tv0Pd2DD-50" value="Archive Storage" style="rounded=1;whiteSpace=wrap;html=1;" vertex="1" parent="1">
          <mxGeometry x="1585" y="1370" width="120" height="60" as="geometry" />
        </mxCell>
        <mxCell id="W2terURq2gF2Tv0Pd2DD-52" value="HTTP/HTTPS API Calls&lt;br&gt;RESTful JSON API&lt;br&gt;WebSocket for real-time updates" style="text;html=1;align=center;verticalAlign=middle;resizable=0;points=[];autosize=1;strokeColor=none;fillColor=none;" vertex="1" parent="1">
          <mxGeometry x="1500" y="480" width="200" height="40" as="geometry" />
        </mxCell>
        <mxCell id="W2terURq2gF2Tv0Pd2DD-54" value="Internal Service Communication&lt;br&gt;gRPC/HTTP" style="text;html=1;align=center;verticalAlign=middle;resizable=0;points=[];autosize=1;strokeColor=none;fillColor=none;" vertex="1" parent="1">
          <mxGeometry x="1500" y="790" width="200" height="40" as="geometry" />
        </mxCell>
        <mxCell id="W2terURq2gF2Tv0Pd2DD-56" value="Database Queries&lt;br&gt;Connection Pooling" style="text;html=1;align=center;verticalAlign=middle;resizable=0;points=[];autosize=1;strokeColor=none;fillColor=none;" vertex="1" parent="1">
          <mxGeometry x="1490" y="1160" width="200" height="40" as="geometry" />
        </mxCell>
        <mxCell id="W2terURq2gF2Tv0Pd2DD-230" style="edgeStyle=orthogonalEdgeStyle;rounded=0;orthogonalLoop=1;jettySize=auto;html=1;endArrow=none;endFill=0;" edge="1" parent="1" source="W2terURq2gF2Tv0Pd2DD-57">
          <mxGeometry relative="1" as="geometry">
            <mxPoint x="2170" y="1130" as="targetPoint" />
          </mxGeometry>
        </mxCell>
        <mxCell id="W2terURq2gF2Tv0Pd2DD-57" value="Client" style="rounded=1;whiteSpace=wrap;html=1;" vertex="1" parent="1">
          <mxGeometry x="2120" y="390" width="100" height="40" as="geometry" />
        </mxCell>
        <mxCell id="W2terURq2gF2Tv0Pd2DD-231" style="edgeStyle=orthogonalEdgeStyle;rounded=0;orthogonalLoop=1;jettySize=auto;html=1;endArrow=none;endFill=0;" edge="1" parent="1" source="W2terURq2gF2Tv0Pd2DD-62">
          <mxGeometry relative="1" as="geometry">
            <mxPoint x="2310" y="1130" as="targetPoint" />
          </mxGeometry>
        </mxCell>
        <mxCell id="W2terURq2gF2Tv0Pd2DD-62" value="API Gateway" style="rounded=1;whiteSpace=wrap;html=1;" vertex="1" parent="1">
          <mxGeometry x="2260" y="390" width="100" height="40" as="geometry" />
        </mxCell>
        <mxCell id="W2terURq2gF2Tv0Pd2DD-232" style="edgeStyle=orthogonalEdgeStyle;rounded=0;orthogonalLoop=1;jettySize=auto;html=1;endArrow=none;endFill=0;" edge="1" parent="1" source="W2terURq2gF2Tv0Pd2DD-66">
          <mxGeometry relative="1" as="geometry">
            <mxPoint x="2450" y="1130" as="targetPoint" />
          </mxGeometry>
        </mxCell>
        <mxCell id="W2terURq2gF2Tv0Pd2DD-66" value="Booking Service" style="rounded=1;whiteSpace=wrap;html=1;" vertex="1" parent="1">
          <mxGeometry x="2400" y="390" width="100" height="40" as="geometry" />
        </mxCell>
        <mxCell id="W2terURq2gF2Tv0Pd2DD-233" style="edgeStyle=orthogonalEdgeStyle;rounded=0;orthogonalLoop=1;jettySize=auto;html=1;endArrow=none;endFill=0;" edge="1" parent="1" source="W2terURq2gF2Tv0Pd2DD-73">
          <mxGeometry relative="1" as="geometry">
            <mxPoint x="2590" y="1130" as="targetPoint" />
          </mxGeometry>
        </mxCell>
        <mxCell id="W2terURq2gF2Tv0Pd2DD-73" value="Redis" style="rounded=1;whiteSpace=wrap;html=1;" vertex="1" parent="1">
          <mxGeometry x="2540" y="390" width="100" height="40" as="geometry" />
        </mxCell>
        <mxCell id="W2terURq2gF2Tv0Pd2DD-234" style="edgeStyle=orthogonalEdgeStyle;rounded=0;orthogonalLoop=1;jettySize=auto;html=1;endArrow=none;endFill=0;" edge="1" parent="1" source="W2terURq2gF2Tv0Pd2DD-76">
          <mxGeometry relative="1" as="geometry">
            <mxPoint x="2730" y="1130" as="targetPoint" />
          </mxGeometry>
        </mxCell>
        <mxCell id="W2terURq2gF2Tv0Pd2DD-76" value="Database" style="rounded=1;whiteSpace=wrap;html=1;" vertex="1" parent="1">
          <mxGeometry x="2680" y="390" width="100" height="40" as="geometry" />
        </mxCell>
        <mxCell id="W2terURq2gF2Tv0Pd2DD-103" value="HORIZONTAL SCALING" style="rounded=1;whiteSpace=wrap;html=1;" vertex="1" parent="1">
          <mxGeometry x="2975" y="400" width="650" height="40" as="geometry" />
        </mxCell>
        <mxCell id="W2terURq2gF2Tv0Pd2DD-104" value="API Gateway&lt;br&gt;Instance 1" style="rounded=1;whiteSpace=wrap;html=1;" vertex="1" parent="1">
          <mxGeometry x="2995" y="470" width="120" height="60" as="geometry" />
        </mxCell>
        <mxCell id="W2terURq2gF2Tv0Pd2DD-105" value="Booking Service&lt;br&gt;Instance 1" style="rounded=1;whiteSpace=wrap;html=1;" vertex="1" parent="1">
          <mxGeometry x="3155" y="470" width="120" height="60" as="geometry" />
        </mxCell>
        <mxCell id="W2terURq2gF2Tv0Pd2DD-106" value="Payment Service&lt;br&gt;Instance 1" style="rounded=1;whiteSpace=wrap;html=1;" vertex="1" parent="1">
          <mxGeometry x="3315" y="470" width="120" height="60" as="geometry" />
        </mxCell>
        <mxCell id="W2terURq2gF2Tv0Pd2DD-107" value="Auth Service&lt;br&gt;Instance 1" style="rounded=1;whiteSpace=wrap;html=1;" vertex="1" parent="1">
          <mxGeometry x="3475" y="470" width="120" height="60" as="geometry" />
        </mxCell>
        <mxCell id="W2terURq2gF2Tv0Pd2DD-108" value="API Gateway&lt;br&gt;Instance 2" style="rounded=1;whiteSpace=wrap;html=1;" vertex="1" parent="1">
          <mxGeometry x="2995" y="550" width="120" height="60" as="geometry" />
        </mxCell>
        <mxCell id="W2terURq2gF2Tv0Pd2DD-109" value="Booking Service&lt;br&gt;Instance 2" style="rounded=1;whiteSpace=wrap;html=1;" vertex="1" parent="1">
          <mxGeometry x="3155" y="550" width="120" height="60" as="geometry" />
        </mxCell>
        <mxCell id="W2terURq2gF2Tv0Pd2DD-110" value="Payment Service&lt;br&gt;Instance 2" style="rounded=1;whiteSpace=wrap;html=1;" vertex="1" parent="1">
          <mxGeometry x="3315" y="550" width="120" height="60" as="geometry" />
        </mxCell>
        <mxCell id="W2terURq2gF2Tv0Pd2DD-111" value="Auth Service&lt;br&gt;Instance 2" style="rounded=1;whiteSpace=wrap;html=1;" vertex="1" parent="1">
          <mxGeometry x="3475" y="550" width="120" height="60" as="geometry" />
        </mxCell>
        <mxCell id="W2terURq2gF2Tv0Pd2DD-112" value="API Gateway&lt;br&gt;Instance N" style="rounded=1;whiteSpace=wrap;html=1;" vertex="1" parent="1">
          <mxGeometry x="2995" y="630" width="120" height="60" as="geometry" />
        </mxCell>
        <mxCell id="W2terURq2gF2Tv0Pd2DD-113" value="Booking Service&lt;br&gt;Instance N" style="rounded=1;whiteSpace=wrap;html=1;" vertex="1" parent="1">
          <mxGeometry x="3155" y="630" width="120" height="60" as="geometry" />
        </mxCell>
        <mxCell id="W2terURq2gF2Tv0Pd2DD-114" value="Payment Service&lt;br&gt;Instance N" style="rounded=1;whiteSpace=wrap;html=1;" vertex="1" parent="1">
          <mxGeometry x="3315" y="630" width="120" height="60" as="geometry" />
        </mxCell>
        <mxCell id="W2terURq2gF2Tv0Pd2DD-115" value="Auth Service&lt;br&gt;Instance N" style="rounded=1;whiteSpace=wrap;html=1;" vertex="1" parent="1">
          <mxGeometry x="3475" y="630" width="120" height="60" as="geometry" />
        </mxCell>
        <mxCell id="W2terURq2gF2Tv0Pd2DD-116" value="DATABASE SCALING" style="rounded=1;whiteSpace=wrap;html=1;" vertex="1" parent="1">
          <mxGeometry x="2975" y="750" width="650" height="40" as="geometry" />
        </mxCell>
        <mxCell id="W2terURq2gF2Tv0Pd2DD-117" value="Primary&lt;br&gt;PostgreSQL&lt;br&gt;(Write)" style="rounded=1;whiteSpace=wrap;html=1;" vertex="1" parent="1">
          <mxGeometry x="2995" y="830" width="120" height="60" as="geometry" />
        </mxCell>
        <mxCell id="W2terURq2gF2Tv0Pd2DD-118" value="Read&lt;br&gt;Replica 1&lt;br&gt;(Read-only)" style="rounded=1;whiteSpace=wrap;html=1;" vertex="1" parent="1">
          <mxGeometry x="3155" y="830" width="120" height="60" as="geometry" />
        </mxCell>
        <mxCell id="W2terURq2gF2Tv0Pd2DD-119" value="Read&lt;br&gt;Replica 2&lt;br&gt;(Read-only)" style="rounded=1;whiteSpace=wrap;html=1;" vertex="1" parent="1">
          <mxGeometry x="3315" y="830" width="120" height="60" as="geometry" />
        </mxCell>
        <mxCell id="W2terURq2gF2Tv0Pd2DD-120" value="Read&lt;br&gt;Replica N&lt;br&gt;(Read-only)" style="rounded=1;whiteSpace=wrap;html=1;" vertex="1" parent="1">
          <mxGeometry x="3475" y="830" width="120" height="60" as="geometry" />
        </mxCell>
        <mxCell id="W2terURq2gF2Tv0Pd2DD-121" value="Streaming WAL Updates" style="edgeStyle=orthogonalEdgeStyle;html=1;endArrow=open;endFill=0;dashed=1;entryX=0.5;entryY=1;entryDx=0;entryDy=0;" edge="1" parent="1" source="W2terURq2gF2Tv0Pd2DD-117" target="W2terURq2gF2Tv0Pd2DD-118">
          <mxGeometry x="-0.0417" y="-20" relative="1" as="geometry">
            <mxPoint x="3055" y="950" as="sourcePoint" />
            <mxPoint x="3215" y="890" as="targetPoint" />
            <Array as="points">
              <mxPoint x="3055" y="930" />
              <mxPoint x="3215" y="930" />
            </Array>
            <mxPoint as="offset" />
          </mxGeometry>
        </mxCell>
        <mxCell id="W2terURq2gF2Tv0Pd2DD-122" value="Streaming WAL Updates" style="edgeStyle=orthogonalEdgeStyle;html=1;endArrow=open;endFill=0;dashed=1;entryX=0.5;entryY=1;entryDx=0;entryDy=0;" edge="1" parent="1" source="W2terURq2gF2Tv0Pd2DD-117" target="W2terURq2gF2Tv0Pd2DD-119">
          <mxGeometry x="0.375" y="-20" relative="1" as="geometry">
            <mxPoint x="3055" y="950" as="sourcePoint" />
            <mxPoint x="3375" y="890" as="targetPoint" />
            <Array as="points">
              <mxPoint x="3055" y="930" />
              <mxPoint x="3375" y="930" />
            </Array>
            <mxPoint as="offset" />
          </mxGeometry>
        </mxCell>
        <mxCell id="W2terURq2gF2Tv0Pd2DD-123" value="Streaming WAL Updates" style="edgeStyle=orthogonalEdgeStyle;html=1;endArrow=open;endFill=0;dashed=1;entryX=0.5;entryY=1;entryDx=0;entryDy=0;" edge="1" parent="1" source="W2terURq2gF2Tv0Pd2DD-117" target="W2terURq2gF2Tv0Pd2DD-120">
          <mxGeometry x="0.625" y="-20" relative="1" as="geometry">
            <mxPoint x="3055" y="950" as="sourcePoint" />
            <mxPoint x="3535" y="890" as="targetPoint" />
            <Array as="points">
              <mxPoint x="3055" y="930" />
              <mxPoint x="3535" y="930" />
            </Array>
            <mxPoint as="offset" />
          </mxGeometry>
        </mxCell>
        <mxCell id="W2terURq2gF2Tv0Pd2DD-124" value="SECURITY ARCHITECTURE" style="rounded=1;whiteSpace=wrap;html=1;" vertex="1" parent="1">
          <mxGeometry x="3910" y="410" width="650" height="40" as="geometry" />
        </mxCell>
        <mxCell id="W2terURq2gF2Tv0Pd2DD-125" value="Network Security&lt;br&gt;(Firewalls,&lt;br&gt;VPN, VPC)" style="rounded=1;whiteSpace=wrap;html=1;" vertex="1" parent="1">
          <mxGeometry x="3930" y="480" width="120" height="80" as="geometry" />
        </mxCell>
        <mxCell id="W2terURq2gF2Tv0Pd2DD-126" value="Application Security&lt;br&gt;(Input Validation,&lt;br&gt;Rate Limiting)" style="rounded=1;whiteSpace=wrap;html=1;" vertex="1" parent="1">
          <mxGeometry x="4090" y="480" width="120" height="80" as="geometry" />
        </mxCell>
        <mxCell id="W2terURq2gF2Tv0Pd2DD-127" value="Data Encryption&lt;br&gt;(TLS/SSL,&lt;br&gt;Database Encryption)" style="rounded=1;whiteSpace=wrap;html=1;" vertex="1" parent="1">
          <mxGeometry x="4250" y="480" width="120" height="80" as="geometry" />
        </mxCell>
        <mxCell id="W2terURq2gF2Tv0Pd2DD-128" value="Monitoring &amp; Auditing&lt;br&gt;(Logging,&lt;br&gt;SIEM, Alerts)" style="rounded=1;whiteSpace=wrap;html=1;" vertex="1" parent="1">
          <mxGeometry x="4410" y="480" width="120" height="80" as="geometry" />
        </mxCell>
        <mxCell id="W2terURq2gF2Tv0Pd2DD-129" value="DDoS Protection&lt;br&gt;(Cloudflare,&lt;br&gt;AWS Shield)" style="rounded=1;whiteSpace=wrap;html=1;" vertex="1" parent="1">
          <mxGeometry x="3930" y="600" width="120" height="80" as="geometry" />
        </mxCell>
        <mxCell id="W2terURq2gF2Tv0Pd2DD-130" value="Access Control&lt;br&gt;(RBAC,&lt;br&gt;ABAC)" style="rounded=1;whiteSpace=wrap;html=1;" vertex="1" parent="1">
          <mxGeometry x="4090" y="600" width="120" height="80" as="geometry" />
        </mxCell>
        <mxCell id="W2terURq2gF2Tv0Pd2DD-131" value="API Security&lt;br&gt;(JWT, OAuth,&lt;br&gt;API Keys)" style="rounded=1;whiteSpace=wrap;html=1;" vertex="1" parent="1">
          <mxGeometry x="4250" y="600" width="120" height="80" as="geometry" />
        </mxCell>
        <mxCell id="W2terURq2gF2Tv0Pd2DD-132" value="Backup &amp; Disaster Recovery&lt;br&gt;(Planning)" style="rounded=1;whiteSpace=wrap;html=1;" vertex="1" parent="1">
          <mxGeometry x="4410" y="600" width="120" height="80" as="geometry" />
        </mxCell>
        <mxCell id="W2terURq2gF2Tv0Pd2DD-134" style="edgeStyle=orthogonalEdgeStyle;rounded=0;orthogonalLoop=1;jettySize=auto;html=1;entryX=0.456;entryY=0.95;entryDx=0;entryDy=0;entryPerimeter=0;exitX=0.75;exitY=0;exitDx=0;exitDy=0;" edge="1" parent="1" source="W2terURq2gF2Tv0Pd2DD-12" target="W2terURq2gF2Tv0Pd2DD-5">
          <mxGeometry relative="1" as="geometry">
            <Array as="points">
              <mxPoint x="720" y="460" />
              <mxPoint x="855" y="460" />
            </Array>
          </mxGeometry>
        </mxCell>
        <mxCell id="W2terURq2gF2Tv0Pd2DD-149" value="API GATEWAY LAYER" style="rounded=1;whiteSpace=wrap;html=1;" vertex="1" parent="1">
          <mxGeometry x="1150" y="570" width="670" height="40" as="geometry" />
        </mxCell>
        <mxCell id="W2terURq2gF2Tv0Pd2DD-166" value="APPLICATION LAYER" style="rounded=1;whiteSpace=wrap;html=1;" vertex="1" parent="1">
          <mxGeometry x="1160" y="870" width="650" height="40" as="geometry" />
        </mxCell>
        <mxCell id="W2terURq2gF2Tv0Pd2DD-179" value="DATA LAYER" style="rounded=1;whiteSpace=wrap;html=1;" vertex="1" parent="1">
          <mxGeometry x="1165" y="1240" width="650" height="40" as="geometry" />
        </mxCell>
        <mxCell id="W2terURq2gF2Tv0Pd2DD-188" value="CLIENT LAYER" style="rounded=1;whiteSpace=wrap;html=1;" vertex="1" parent="1">
          <mxGeometry x="1150" y="275" width="680" height="40" as="geometry" />
        </mxCell>
        <mxCell id="W2terURq2gF2Tv0Pd2DD-58" value="1. Request available&amp;nbsp;&lt;div&gt;seats&lt;/div&gt;" style="edgeLabel;html=1;align=left;verticalAlign=bottom;resizable=0;points=[];" vertex="1" connectable="0" parent="1">
          <mxGeometry x="2190" y="500" as="geometry" />
        </mxCell>
        <mxCell id="W2terURq2gF2Tv0Pd2DD-63" value="2. Route to booking&amp;nbsp;&lt;div&gt;service&lt;/div&gt;" style="edgeLabel;html=1;align=left;verticalAlign=bottom;resizable=0;points=[];" vertex="1" connectable="0" parent="1">
          <mxGeometry x="2330" y="530" as="geometry" />
        </mxCell>
        <mxCell id="W2terURq2gF2Tv0Pd2DD-67" value="3. Query available&amp;nbsp;&lt;div&gt;seats&lt;/div&gt;" style="edgeLabel;html=1;align=left;verticalAlign=bottom;resizable=0;points=[];" vertex="1" connectable="0" parent="1">
          <mxGeometry x="2470" y="560" as="geometry" />
        </mxCell>
        <mxCell id="W2terURq2gF2Tv0Pd2DD-74" value="4. Check cache or&amp;nbsp;&lt;div&gt;query DB&lt;/div&gt;" style="edgeLabel;html=1;align=left;verticalAlign=bottom;resizable=0;points=[];" vertex="1" connectable="0" parent="1">
          <mxGeometry x="2610" y="600" as="geometry" />
        </mxCell>
        <mxCell id="W2terURq2gF2Tv0Pd2DD-68" value="5. Return seat map" style="edgeLabel;html=1;align=right;verticalAlign=bottom;resizable=0;points=[];" vertex="1" connectable="0" parent="1">
          <mxGeometry x="2570" y="640" as="geometry" />
        </mxCell>
        <mxCell id="W2terURq2gF2Tv0Pd2DD-59" value="6. Select seats and&amp;nbsp;&lt;div&gt;reserve&lt;/div&gt;" style="edgeLabel;html=1;align=left;verticalAlign=bottom;resizable=0;points=[];" vertex="1" connectable="0" parent="1">
          <mxGeometry x="2180" y="690" as="geometry" />
        </mxCell>
        <mxCell id="W2terURq2gF2Tv0Pd2DD-64" value="7. Route to booking&amp;nbsp;&lt;div&gt;service&lt;/div&gt;" style="edgeLabel;html=1;align=left;verticalAlign=bottom;resizable=0;points=[];" vertex="1" connectable="0" parent="1">
          <mxGeometry x="2340" y="730" as="geometry" />
        </mxCell>
        <mxCell id="W2terURq2gF2Tv0Pd2DD-69" value="8. Acquire Redis lock&amp;nbsp;&lt;div&gt;for seats&lt;/div&gt;" style="edgeLabel;html=1;align=left;verticalAlign=bottom;resizable=0;points=[];" vertex="1" connectable="0" parent="1">
          <mxGeometry x="2470" y="760" as="geometry" />
        </mxCell>
        <mxCell id="W2terURq2gF2Tv0Pd2DD-75" value="9. Set lock &amp;amp;&amp;nbsp;&lt;div&gt;reservation&lt;/div&gt;" style="edgeLabel;html=1;align=left;verticalAlign=bottom;resizable=0;points=[];" vertex="1" connectable="0" parent="1">
          <mxGeometry x="2630" y="790" as="geometry" />
        </mxCell>
        <mxCell id="W2terURq2gF2Tv0Pd2DD-70" value="10. Update DB and cache" style="edgeLabel;html=1;align=left;verticalAlign=bottom;resizable=0;points=[];" vertex="1" connectable="0" parent="1">
          <mxGeometry x="2460" y="810" as="geometry" />
        </mxCell>
        <mxCell id="W2terURq2gF2Tv0Pd2DD-60" value="11. Confirm payment" style="edgeLabel;html=1;align=left;verticalAlign=bottom;resizable=0;points=[];" vertex="1" connectable="0" parent="1">
          <mxGeometry x="2190" y="870" as="geometry" />
        </mxCell>
        <mxCell id="W2terURq2gF2Tv0Pd2DD-65" value="12. Route to payment&lt;div&gt;service&lt;/div&gt;" style="edgeLabel;html=1;align=left;verticalAlign=bottom;resizable=0;points=[];" vertex="1" connectable="0" parent="1">
          <mxGeometry x="2320" y="910" as="geometry" />
        </mxCell>
        <mxCell id="W2terURq2gF2Tv0Pd2DD-71" value="13. Process payment &amp;amp;&amp;nbsp;&lt;div&gt;update booking&lt;/div&gt;" style="edgeLabel;html=1;align=left;verticalAlign=bottom;resizable=0;points=[];" vertex="1" connectable="0" parent="1">
          <mxGeometry x="2460" y="950" as="geometry" />
        </mxCell>
        <mxCell id="W2terURq2gF2Tv0Pd2DD-61" value="14. Send confirmation" style="edgeLabel;html=1;align=right;verticalAlign=bottom;resizable=0;points=[];" vertex="1" connectable="0" parent="1">
          <mxGeometry x="2290" y="995" as="geometry" />
        </mxCell>
        <mxCell id="W2terURq2gF2Tv0Pd2DD-72" value="15. Trigger notification" style="edgeLabel;html=1;align=right;verticalAlign=bottom;resizable=0;points=[];" vertex="1" connectable="0" parent="1">
          <mxGeometry x="2430" y="1030" as="geometry" />
        </mxCell>
        <mxCell id="W2terURq2gF2Tv0Pd2DD-235" value="" style="endArrow=classic;html=1;rounded=0;" edge="1" parent="1">
          <mxGeometry width="50" height="50" relative="1" as="geometry">
            <mxPoint x="2170" y="500" as="sourcePoint" />
            <mxPoint x="2310" y="500" as="targetPoint" />
          </mxGeometry>
        </mxCell>
        <mxCell id="W2terURq2gF2Tv0Pd2DD-236" value="" style="endArrow=classic;html=1;rounded=0;" edge="1" parent="1">
          <mxGeometry width="50" height="50" relative="1" as="geometry">
            <mxPoint x="2310" y="530" as="sourcePoint" />
            <mxPoint x="2450" y="530" as="targetPoint" />
          </mxGeometry>
        </mxCell>
        <mxCell id="W2terURq2gF2Tv0Pd2DD-237" value="" style="endArrow=classic;html=1;rounded=0;" edge="1" parent="1">
          <mxGeometry width="50" height="50" relative="1" as="geometry">
            <mxPoint x="2450" y="560" as="sourcePoint" />
            <mxPoint x="2590" y="560" as="targetPoint" />
          </mxGeometry>
        </mxCell>
        <mxCell id="W2terURq2gF2Tv0Pd2DD-238" value="" style="endArrow=classic;html=1;rounded=0;" edge="1" parent="1">
          <mxGeometry width="50" height="50" relative="1" as="geometry">
            <mxPoint x="2590" y="610" as="sourcePoint" />
            <mxPoint x="2730" y="610" as="targetPoint" />
          </mxGeometry>
        </mxCell>
        <mxCell id="W2terURq2gF2Tv0Pd2DD-239" value="" style="endArrow=classic;html=1;rounded=0;" edge="1" parent="1">
          <mxGeometry width="50" height="50" relative="1" as="geometry">
            <mxPoint x="2590" y="650" as="sourcePoint" />
            <mxPoint x="2170" y="650" as="targetPoint" />
          </mxGeometry>
        </mxCell>
        <mxCell id="W2terURq2gF2Tv0Pd2DD-241" value="" style="endArrow=classic;html=1;rounded=0;" edge="1" parent="1">
          <mxGeometry width="50" height="50" relative="1" as="geometry">
            <mxPoint x="2170" y="690" as="sourcePoint" />
            <mxPoint x="2310" y="690" as="targetPoint" />
          </mxGeometry>
        </mxCell>
        <mxCell id="W2terURq2gF2Tv0Pd2DD-243" value="" style="endArrow=classic;html=1;rounded=0;" edge="1" parent="1">
          <mxGeometry width="50" height="50" relative="1" as="geometry">
            <mxPoint x="2310" y="730" as="sourcePoint" />
            <mxPoint x="2450" y="730" as="targetPoint" />
          </mxGeometry>
        </mxCell>
        <mxCell id="W2terURq2gF2Tv0Pd2DD-244" value="" style="endArrow=classic;html=1;rounded=0;" edge="1" parent="1">
          <mxGeometry width="50" height="50" relative="1" as="geometry">
            <mxPoint x="2450" y="770" as="sourcePoint" />
            <mxPoint x="2590" y="770" as="targetPoint" />
          </mxGeometry>
        </mxCell>
        <mxCell id="W2terURq2gF2Tv0Pd2DD-245" value="" style="endArrow=classic;html=1;rounded=0;" edge="1" parent="1">
          <mxGeometry width="50" height="50" relative="1" as="geometry">
            <mxPoint x="2450" y="820" as="sourcePoint" />
            <mxPoint x="2590" y="820" as="targetPoint" />
          </mxGeometry>
        </mxCell>
        <mxCell id="W2terURq2gF2Tv0Pd2DD-246" value="" style="endArrow=classic;html=1;rounded=0;" edge="1" parent="1">
          <mxGeometry width="50" height="50" relative="1" as="geometry">
            <mxPoint x="2590" y="840" as="sourcePoint" />
            <mxPoint x="2170" y="840" as="targetPoint" />
          </mxGeometry>
        </mxCell>
        <mxCell id="W2terURq2gF2Tv0Pd2DD-248" value="" style="endArrow=classic;html=1;rounded=0;" edge="1" parent="1">
          <mxGeometry width="50" height="50" relative="1" as="geometry">
            <mxPoint x="2170" y="880" as="sourcePoint" />
            <mxPoint x="2310" y="880" as="targetPoint" />
          </mxGeometry>
        </mxCell>
        <mxCell id="W2terURq2gF2Tv0Pd2DD-249" value="" style="endArrow=classic;html=1;rounded=0;" edge="1" parent="1">
          <mxGeometry width="50" height="50" relative="1" as="geometry">
            <mxPoint x="2310" y="920" as="sourcePoint" />
            <mxPoint x="2450" y="920" as="targetPoint" />
          </mxGeometry>
        </mxCell>
        <mxCell id="W2terURq2gF2Tv0Pd2DD-250" value="" style="endArrow=classic;html=1;rounded=0;" edge="1" parent="1">
          <mxGeometry width="50" height="50" relative="1" as="geometry">
            <mxPoint x="2450" y="960" as="sourcePoint" />
            <mxPoint x="2590" y="960" as="targetPoint" />
          </mxGeometry>
        </mxCell>
        <mxCell id="W2terURq2gF2Tv0Pd2DD-251" value="" style="endArrow=classic;html=1;rounded=0;" edge="1" parent="1">
          <mxGeometry width="50" height="50" relative="1" as="geometry">
            <mxPoint x="2590" y="969.6800000000001" as="sourcePoint" />
            <mxPoint x="2170" y="969.6800000000001" as="targetPoint" />
          </mxGeometry>
        </mxCell>
        <mxCell id="W2terURq2gF2Tv0Pd2DD-253" value="" style="endArrow=classic;html=1;rounded=0;" edge="1" parent="1">
          <mxGeometry width="50" height="50" relative="1" as="geometry">
            <mxPoint x="2170" y="1010" as="sourcePoint" />
            <mxPoint x="2310" y="1010" as="targetPoint" />
          </mxGeometry>
        </mxCell>
        <mxCell id="W2terURq2gF2Tv0Pd2DD-254" value="" style="endArrow=classic;html=1;rounded=0;" edge="1" parent="1">
          <mxGeometry width="50" height="50" relative="1" as="geometry">
            <mxPoint x="2450" y="1040" as="sourcePoint" />
            <mxPoint x="2170" y="1040" as="targetPoint" />
          </mxGeometry>
        </mxCell>
        <mxCell id="W2terURq2gF2Tv0Pd2DD-255" value="" style="endArrow=none;dashed=1;html=1;rounded=0;" edge="1" parent="1">
          <mxGeometry width="50" height="50" relative="1" as="geometry">
            <mxPoint x="3130" y="940" as="sourcePoint" />
            <mxPoint x="3130" y="930" as="targetPoint" />
          </mxGeometry>
        </mxCell>
        <mxCell id="W2terURq2gF2Tv0Pd2DD-256" value="" style="endArrow=none;dashed=1;html=1;rounded=0;" edge="1" parent="1">
          <mxGeometry width="50" height="50" relative="1" as="geometry">
            <mxPoint x="3280" y="940" as="sourcePoint" />
            <mxPoint x="3280" y="930" as="targetPoint" />
          </mxGeometry>
        </mxCell>
        <mxCell id="W2terURq2gF2Tv0Pd2DD-257" value="" style="endArrow=none;dashed=1;html=1;rounded=0;" edge="1" parent="1">
          <mxGeometry width="50" height="50" relative="1" as="geometry">
            <mxPoint x="3480" y="940" as="sourcePoint" />
            <mxPoint x="3480" y="930" as="targetPoint" />
          </mxGeometry>
        </mxCell>
      </root>
    </mxGraphModel>
  </diagram>
</mxfile>
